Genre:Drama | Thriller
Language: English
IMDB:http://www.imdb.com/title/tt1323045/
Source:720p.DTS.x264-CHD

General
Complete name :Frozen.2010.480p.BRRip.XviD.Feel-Free.avi
Format : AVI
Format/Info : Audio Video Interleave
File size : 1.60 GiB
Duration : 1h 33mn
Overall bit rate : 2 459 Kbps
Video #0
ID : 0
Format : MPEG-4 Visual
Format profile : AdvancedSimple@L5
Format settings, BVOP : Yes
Format settings, QPel : No
Format settings, GMC : No warppoints
Format settings, Matrix : Default (H.263)
Muxing mode : Packed bitstream
Codec ID : XVID
Codec ID/Hint : XviD
Duration : 1h 33mn
Bit rate : 2 002 Kbps
Width : 720 pixels
Height : 304 pixels
Display aspect ratio : 2.35:1
Frame rate : 23.976 fps
Resolution : 24 bits
Colorimetry : 4:2:0
Scan type : Progressive
Bits/(Pixel*Frame) : 0.381
Stream size : 1.30 GiB (81%)
Writing library : XviD 1.2.1 (UTC 2008-12-04)
Audio #1
ID : 1
Format : AC-3
Format/Info : Audio Coding 3
Codec ID : 2000
Duration : 1h 33mn
Bit rate mode : Constant
Bit rate : 448 Kbps
Channel(s) : 6 channels
Channel positions : Front: L C R, Surround: L R, LFE
Sampling rate : 48.0 KHz
Stream size : 299 MiB (18%)
Alignment : Split accross interleaves
Interleave, duration : 42 ms (1.00 video frame)
Interleave, preload duration : 500 ms

Plot
Three skiers are stranded on a chairlift and forced to make life-or-death choices that prove more perilous than staying put and freezing to death

TRAILER: